# xmcd CD database file
#
# Track frame offsets:
#	150
#	12987
#	27257
#	41881
#	55580
#	71883
#	84324
#	97597
#	110951
#	124465
#	137862
#	150197
#	162831
#	178013
#	192995
#	206884
#	220942
#	235583
#	248950
#	261098
#	274315
#	288799
#	300976
#	314212
#	329281
#
# Disc length: 4584 seconds
#
# Revision: 0
# Processed by: cddbd v1.5.2PL0 Copyright (c) Steve Scherf et al.
# Submitted via: CDex 1.70beta2
#
DISCID=6e11e619
DTITLE=John Lee Hooker - The Blues Man
DYEAR=2005
DGENRE=Blues
TTITLE0=Bumble Bee Blues
TTITLE1=Cat Fish Blues
TTITLE2=How Long Must I Be Your Slave
TTITLE3=Hobo Blues
TTITLE4=Low Down Midnite Boogie
TTITLE5=It Hurts Me So
TTITLE6=Road Trouble
TTITLE7=Walkin' The Boogie
TTITLE8=House Rent Boogie
TTITLE9=Ditrty Ground Hog Blues
TTITLE10=High Priced Woman
TTITLE11=Leave My Wife Alone
TTITLE12=Just Me and My Telephone
TTITLE13=My Daddy Was a Jockey
TTITLE14=Luoise Louise
TTITLE15=Talkin' Boogie
TTITLE16=Sugar Mama
TTITLE17=Union Station Blues
TTITLE18=Mad Man Blues
TTITLE19=Hoogie Boogie
TTITLE20=Four Women in My Life
TTITLE21=How Can You Do It
TTITLE22=I Need Lovin'
TTITLE23=Ramblin' By Myself
TTITLE24=Graveyard Blues
EXTD=YEAR: 2005
EXTT0=
EXTT1=
EXTT2=
EXTT3=
EXTT4=
EXTT5=
EXTT6=
EXTT7=
EXTT8=
EXTT9=
EXTT10=
EXTT11=
EXTT12=
EXTT13=
EXTT14=
EXTT15=
EXTT16=
EXTT17=
EXTT18=
EXTT19=
EXTT20=
EXTT21=
EXTT22=
EXTT23=
EXTT24=
PLAYORDER=
